<?xml version="1.0" encoding="UTF-8" standalone="no"?>
<!DOCTYPE svg PUBLIC "-//W3C//DTD SVG 1.1//EN"
 "http://www.w3.org/Graphics/SVG/1.1/DTD/svg11.dtd">
<!-- Generated by graphviz version 2.47.0 (20210316.0004)
 -->
<!-- Title: dbml Pages: 1 -->
<svg width="2234pt" height="1907pt"
 viewBox="0.00 0.00 2234.49 1906.92" xmlns="http://www.w3.org/2000/svg" xmlns:xlink="http://www.w3.org/1999/xlink">
<g id="graph0" class="graph" transform="scale(1 1) rotate(0) translate(4 1902.92)">
<title>dbml</title>
<!-- Customer -->
<g id="Customer" class="node">
<title>Customer</title>
<ellipse fill="none" stroke="black" stroke-width="0" cx="1992.44" cy="-1194.96" rx="216.25" ry="214.92"/>
<polygon fill="#1d71b8" stroke="transparent" points="1841.44,-1284.96 1841.44,-1344.96 2143.44,-1344.96 2143.44,-1284.96 1841.44,-1284.96"/>
<polygon fill="none" stroke="#29235c" points="1841.44,-1284.96 1841.44,-1344.96 2143.44,-1344.96 2143.44,-1284.96 1841.44,-1284.96"/>
<text text-anchor="start" x="1860.86" y="-1306.16" font-family="Helvetica,sans-Serif" font-weight="bold" font-size="32.00" fill="#ffffff"> &#160;&#160;&#160;&#160;&#160;&#160;Customer &#160;&#160;&#160;&#160;&#160;&#160;</text>
<polygon fill="#e7e2dd" stroke="transparent" points="1841.44,-1224.96 1841.44,-1284.96 2143.44,-1284.96 2143.44,-1224.96 1841.44,-1224.96"/>
<polygon fill="none" stroke="#29235c" points="1841.44,-1224.96 1841.44,-1284.96 2143.44,-1284.96 2143.44,-1224.96 1841.44,-1224.96"/>
<text text-anchor="start" x="1852.44" y="-1246.16" font-family="Helvetica,sans-Serif" font-weight="bold" font-size="32.00" fill="#29235c">id</text>
<text text-anchor="start" x="1877.33" y="-1246.16" font-family="Helvetica,sans-Serif" font-size="32.00" fill="#29235c"> &#160;&#160;&#160;</text>
<text text-anchor="start" x="1990.22" y="-1246.16" font-family="Helvetica,sans-Serif" font-style="italic" font-size="32.00" fill="#29235c">INTEGER</text>
<polygon fill="#e7e2dd" stroke="transparent" points="1841.44,-1164.96 1841.44,-1224.96 2143.44,-1224.96 2143.44,-1164.96 1841.44,-1164.96"/>
<polygon fill="none" stroke="#29235c" points="1841.44,-1164.96 1841.44,-1224.96 2143.44,-1224.96 2143.44,-1164.96 1841.44,-1164.96"/>
<text text-anchor="start" x="1852.44" y="-1185.16" font-family="Helvetica,sans-Serif" font-size="32.00" fill="#29235c">name &#160;&#160;&#160;</text>
<text text-anchor="start" x="1976.01" y="-1186.16" font-family="Helvetica,sans-Serif" font-style="italic" font-size="32.00" fill="#29235c">VARCHAR</text>
<polygon fill="#e7e2dd" stroke="transparent" points="1841.44,-1104.96 1841.44,-1164.96 2143.44,-1164.96 2143.44,-1104.96 1841.44,-1104.96"/>
<polygon fill="none" stroke="#29235c" points="1841.44,-1104.96 1841.44,-1164.96 2143.44,-1164.96 2143.44,-1104.96 1841.44,-1104.96"/>
<text text-anchor="start" x="1852.18" y="-1125.16" font-family="Helvetica,sans-Serif" font-size="32.00" fill="#29235c">phone &#160;&#160;&#160;</text>
<text text-anchor="start" x="1976.23" y="-1126.16" font-family="Helvetica,sans-Serif" font-style="italic" font-size="32.00" fill="#29235c">VARCHAR</text>
<polygon fill="#e7e2dd" stroke="transparent" points="1841.44,-1044.96 1841.44,-1104.96 2143.44,-1104.96 2143.44,-1044.96 1841.44,-1044.96"/>
<polygon fill="none" stroke="#29235c" points="1841.44,-1044.96 1841.44,-1104.96 2143.44,-1104.96 2143.44,-1044.96 1841.44,-1044.96"/>
<text text-anchor="start" x="1852.44" y="-1065.16" font-family="Helvetica,sans-Serif" font-size="32.00" fill="#29235c">email &#160;&#160;&#160;</text>
<text text-anchor="start" x="1976.01" y="-1066.16" font-family="Helvetica,sans-Serif" font-style="italic" font-size="32.00" fill="#29235c">VARCHAR</text>
<polygon fill="none" stroke="#29235c" stroke-width="2" points="1840.44,-1043.96 1840.44,-1345.96 2144.44,-1345.96 2144.44,-1043.96 1840.44,-1043.96"/>
</g>
<!-- Employee -->
<g id="Employee" class="node">
<title>Employee</title>
<ellipse fill="none" stroke="black" stroke-width="0" cx="286.38" cy="-1137.96" rx="216.25" ry="214.92"/>
<polygon fill="#1d71b8" stroke="transparent" points="135.38,-1227.96 135.38,-1287.96 437.38,-1287.96 437.38,-1227.96 135.38,-1227.96"/>
<polygon fill="none" stroke="#29235c" points="135.38,-1227.96 135.38,-1287.96 437.38,-1287.96 437.38,-1227.96 135.38,-1227.96"/>
<text text-anchor="start" x="153" y="-1249.16" font-family="Helvetica,sans-Serif" font-weight="bold" font-size="32.00" fill="#ffffff"> &#160;&#160;&#160;&#160;&#160;&#160;Employee &#160;&#160;&#160;&#160;&#160;&#160;</text>
<polygon fill="#e7e2dd" stroke="transparent" points="135.38,-1167.96 135.38,-1227.96 437.38,-1227.96 437.38,-1167.96 135.38,-1167.96"/>
<polygon fill="none" stroke="#29235c" points="135.38,-1167.96 135.38,-1227.96 437.38,-1227.96 437.38,-1167.96 135.38,-1167.96"/>
<text text-anchor="start" x="146.38" y="-1189.16" font-family="Helvetica,sans-Serif" font-weight="bold" font-size="32.00" fill="#29235c">id</text>
<text text-anchor="start" x="171.27" y="-1189.16" font-family="Helvetica,sans-Serif" font-size="32.00" fill="#29235c"> &#160;&#160;&#160;</text>
<text text-anchor="start" x="284.16" y="-1189.16" font-family="Helvetica,sans-Serif" font-style="italic" font-size="32.00" fill="#29235c">INTEGER</text>
<polygon fill="#e7e2dd" stroke="transparent" points="135.38,-1107.96 135.38,-1167.96 437.38,-1167.96 437.38,-1107.96 135.38,-1107.96"/>
<polygon fill="none" stroke="#29235c" points="135.38,-1107.96 135.38,-1167.96 437.38,-1167.96 437.38,-1107.96 135.38,-1107.96"/>
<text text-anchor="start" x="146.38" y="-1128.16" font-family="Helvetica,sans-Serif" font-size="32.00" fill="#29235c">name &#160;&#160;&#160;</text>
<text text-anchor="start" x="269.95" y="-1129.16" font-family="Helvetica,sans-Serif" font-style="italic" font-size="32.00" fill="#29235c">VARCHAR</text>
<polygon fill="#e7e2dd" stroke="transparent" points="135.38,-1047.96 135.38,-1107.96 437.38,-1107.96 437.38,-1047.96 135.38,-1047.96"/>
<polygon fill="none" stroke="#29235c" points="135.38,-1047.96 135.38,-1107.96 437.38,-1107.96 437.38,-1047.96 135.38,-1047.96"/>
<text text-anchor="start" x="146.38" y="-1068.16" font-family="Helvetica,sans-Serif" font-size="32.00" fill="#29235c">role &#160;&#160;&#160;</text>
<text text-anchor="start" x="269.95" y="-1069.16" font-family="Helvetica,sans-Serif" font-style="italic" font-size="32.00" fill="#29235c">VARCHAR</text>
<polygon fill="#e7e2dd" stroke="transparent" points="135.38,-987.96 135.38,-1047.96 437.38,-1047.96 437.38,-987.96 135.38,-987.96"/>
<polygon fill="none" stroke="#29235c" points="135.38,-987.96 135.38,-1047.96 437.38,-1047.96 437.38,-987.96 135.38,-987.96"/>
<text text-anchor="start" x="146.12" y="-1008.16" font-family="Helvetica,sans-Serif" font-size="32.00" fill="#29235c">phone &#160;&#160;&#160;</text>
<text text-anchor="start" x="270.17" y="-1009.16" font-family="Helvetica,sans-Serif" font-style="italic" font-size="32.00" fill="#29235c">VARCHAR</text>
<polygon fill="none" stroke="#29235c" stroke-width="2" points="134.38,-986.96 134.38,-1288.96 438.38,-1288.96 438.38,-986.96 134.38,-986.96"/>
</g>
<!-- Ingredient -->
<g id="Ingredient" class="node">
<title>Ingredient</title>
<ellipse fill="none" stroke="black" stroke-width="0" cx="871.8" cy="-1713.96" rx="253.29" ry="172.57"/>
<polygon fill="#1d71b8" stroke="transparent" points="694.8,-1773.96 694.8,-1833.96 1048.8,-1833.96 1048.8,-1773.96 694.8,-1773.96"/>
<polygon fill="none" stroke="#29235c" points="694.8,-1773.96 694.8,-1833.96 1048.8,-1833.96 1048.8,-1773.96 694.8,-1773.96"/>
<text text-anchor="start" x="738.41" y="-1795.16" font-family="Helvetica,sans-Serif" font-weight="bold" font-size="32.00" fill="#ffffff"> &#160;&#160;&#160;&#160;&#160;&#160;Ingredient &#160;&#160;&#160;&#160;&#160;&#160;</text>
<polygon fill="#e7e2dd" stroke="transparent" points="694.8,-1713.96 694.8,-1773.96 1048.8,-1773.96 1048.8,-1713.96 694.8,-1713.96"/>
<polygon fill="none" stroke="#29235c" points="694.8,-1713.96 694.8,-1773.96 1048.8,-1773.96 1048.8,-1713.96 694.8,-1713.96"/>
<text text-anchor="start" x="705.8" y="-1735.16" font-family="Helvetica,sans-Serif" font-weight="bold" font-size="32.00" fill="#29235c">id</text>
<text text-anchor="start" x="730.69" y="-1735.16" font-family="Helvetica,sans-Serif" font-size="32.00" fill="#29235c"> &#160;&#160;&#160;</text>
<text text-anchor="start" x="895.58" y="-1735.16" font-family="Helvetica,sans-Serif" font-style="italic" font-size="32.00" fill="#29235c">INTEGER</text>
<polygon fill="#e7e2dd" stroke="transparent" points="694.8,-1653.96 694.8,-1713.96 1048.8,-1713.96 1048.8,-1653.96 694.8,-1653.96"/>
<polygon fill="none" stroke="#29235c" points="694.8,-1653.96 694.8,-1713.96 1048.8,-1713.96 1048.8,-1653.96 694.8,-1653.96"/>
<text text-anchor="start" x="705.8" y="-1674.16" font-family="Helvetica,sans-Serif" font-size="32.00" fill="#29235c">name &#160;&#160;&#160;</text>
<text text-anchor="start" x="881.37" y="-1675.16" font-family="Helvetica,sans-Serif" font-style="italic" font-size="32.00" fill="#29235c">VARCHAR</text>
<polygon fill="#e7e2dd" stroke="transparent" points="694.8,-1593.96 694.8,-1653.96 1048.8,-1653.96 1048.8,-1593.96 694.8,-1593.96"/>
<polygon fill="none" stroke="#29235c" points="694.8,-1593.96 694.8,-1653.96 1048.8,-1653.96 1048.8,-1593.96 694.8,-1593.96"/>
<text text-anchor="start" x="705.67" y="-1614.16" font-family="Helvetica,sans-Serif" font-size="32.00" fill="#29235c">supplier_id &#160;&#160;&#160;</text>
<text text-anchor="start" x="895.69" y="-1615.16" font-family="Helvetica,sans-Serif" font-style="italic" font-size="32.00" fill="#29235c">INTEGER</text>
<polygon fill="none" stroke="#29235c" stroke-width="2" points="693.8,-1592.96 693.8,-1834.96 1049.8,-1834.96 1049.8,-1592.96 693.8,-1592.96"/>
</g>
<!-- Supplier -->
<g id="Supplier" class="node">
<title>Supplier</title>
<ellipse fill="none" stroke="black" stroke-width="0" cx="1446.62" cy="-1683.96" rx="226.05" ry="214.92"/>
<polygon fill="#1d71b8" stroke="transparent" points="1288.62,-1773.96 1288.62,-1833.96 1604.62,-1833.96 1604.62,-1773.96 1288.62,-1773.96"/>
<polygon fill="none" stroke="#29235c" points="1288.62,-1773.96 1288.62,-1833.96 1604.62,-1833.96 1604.62,-1773.96 1288.62,-1773.96"/>
<text text-anchor="start" x="1325.69" y="-1795.16" font-family="Helvetica,sans-Serif" font-weight="bold" font-size="32.00" fill="#ffffff"> &#160;&#160;&#160;&#160;&#160;&#160;Supplier &#160;&#160;&#160;&#160;&#160;&#160;</text>
<polygon fill="#e7e2dd" stroke="transparent" points="1288.62,-1713.96 1288.62,-1773.96 1604.62,-1773.96 1604.62,-1713.96 1288.62,-1713.96"/>
<polygon fill="none" stroke="#29235c" points="1288.62,-1713.96 1288.62,-1773.96 1604.62,-1773.96 1604.62,-1713.96 1288.62,-1713.96"/>
<text text-anchor="start" x="1299.62" y="-1735.16" font-family="Helvetica,sans-Serif" font-weight="bold" font-size="32.00" fill="#29235c">id</text>
<text text-anchor="start" x="1324.51" y="-1735.16" font-family="Helvetica,sans-Serif" font-size="32.00" fill="#29235c"> &#160;&#160;&#160;</text>
<text text-anchor="start" x="1451.4" y="-1735.16" font-family="Helvetica,sans-Serif" font-style="italic" font-size="32.00" fill="#29235c">INTEGER</text>
<polygon fill="#e7e2dd" stroke="transparent" points="1288.62,-1653.96 1288.62,-1713.96 1604.62,-1713.96 1604.62,-1653.96 1288.62,-1653.96"/>
<polygon fill="none" stroke="#29235c" points="1288.62,-1653.96 1288.62,-1713.96 1604.62,-1713.96 1604.62,-1653.96 1288.62,-1653.96"/>
<text text-anchor="start" x="1299.62" y="-1674.16" font-family="Helvetica,sans-Serif" font-size="32.00" fill="#29235c">name &#160;&#160;&#160;</text>
<text text-anchor="start" x="1437.19" y="-1675.16" font-family="Helvetica,sans-Serif" font-style="italic" font-size="32.00" fill="#29235c">VARCHAR</text>
<polygon fill="#e7e2dd" stroke="transparent" points="1288.62,-1593.96 1288.62,-1653.96 1604.62,-1653.96 1604.62,-1593.96 1288.62,-1593.96"/>
<polygon fill="none" stroke="#29235c" points="1288.62,-1593.96 1288.62,-1653.96 1604.62,-1653.96 1604.62,-1593.96 1288.62,-1593.96"/>
<text text-anchor="start" x="1299.25" y="-1614.16" font-family="Helvetica,sans-Serif" font-size="32.00" fill="#29235c">contact &#160;&#160;&#160;</text>
<text text-anchor="start" x="1437.4" y="-1615.16" font-family="Helvetica,sans-Serif" font-style="italic" font-size="32.00" fill="#29235c">VARCHAR</text>
<polygon fill="#e7e2dd" stroke="transparent" points="1288.62,-1533.96 1288.62,-1593.96 1604.62,-1593.96 1604.62,-1533.96 1288.62,-1533.96"/>
<polygon fill="none" stroke="#29235c" points="1288.62,-1533.96 1288.62,-1593.96 1604.62,-1593.96 1604.62,-1533.96 1288.62,-1533.96"/>
<text text-anchor="start" x="1299.62" y="-1554.16" font-family="Helvetica,sans-Serif" font-size="32.00" fill="#29235c">email &#160;&#160;&#160;</text>
<text text-anchor="start" x="1437.19" y="-1555.16" font-family="Helvetica,sans-Serif" font-style="italic" font-size="32.00" fill="#29235c">VARCHAR</text>
<polygon fill="none" stroke="#29235c" stroke-width="2" points="1287.62,-1532.96 1287.62,-1834.96 1605.62,-1834.96 1605.62,-1532.96 1287.62,-1532.96"/>
</g>
<!-- Ingredient&#45;&gt;Supplier -->
<!-- Ingredient&#45;&gt;Supplier -->
<g id="edge2" class="edge">
<title>Ingredient:e&#45;&gt;Supplier:w</title>
<path fill="none" stroke="#29235c" stroke-width="3" d="M1049.8,-1623.96C1164.72,-1623.96 1169.06,-1737.03 1277.51,-1743.66"/>
<polygon fill="#29235c" stroke="#29235c" stroke-width="3" points="1277.52,-1747.16 1287.62,-1743.96 1277.72,-1740.16 1277.52,-1747.16"/>
<text text-anchor="middle" x="1293.84" y="-1753.56" font-family="Helvetica,sans-Serif" font-size="32.00" fill="#29235c">*</text>
<text text-anchor="middle" x="1058.69" y="-1623.96" font-family="Helvetica,sans-Serif" font-size="32.00" fill="#29235c">1</text>
</g>
<!-- Inventory -->
<g id="Inventory" class="node">
<title>Inventory</title>
<ellipse fill="none" stroke="black" stroke-width="0" cx="286.38" cy="-1683.96" rx="286.26" ry="214.92"/>
<polygon fill="#1d71b8" stroke="transparent" points="86.38,-1773.96 86.38,-1833.96 487.38,-1833.96 487.38,-1773.96 86.38,-1773.96"/>
<polygon fill="none" stroke="#29235c" points="86.38,-1773.96 86.38,-1833.96 487.38,-1833.96 487.38,-1773.96 86.38,-1773.96"/>
<text text-anchor="start" x="158.83" y="-1795.16" font-family="Helvetica,sans-Serif" font-weight="bold" font-size="32.00" fill="#ffffff"> &#160;&#160;&#160;&#160;&#160;&#160;Inventory &#160;&#160;&#160;&#160;&#160;&#160;</text>
<polygon fill="#e7e2dd" stroke="transparent" points="86.38,-1713.96 86.38,-1773.96 487.38,-1773.96 487.38,-1713.96 86.38,-1713.96"/>
<polygon fill="none" stroke="#29235c" points="86.38,-1713.96 86.38,-1773.96 487.38,-1773.96 487.38,-1713.96 86.38,-1713.96"/>
<text text-anchor="start" x="97.38" y="-1735.16" font-family="Helvetica,sans-Serif" font-weight="bold" font-size="32.00" fill="#29235c">id</text>
<text text-anchor="start" x="122.27" y="-1735.16" font-family="Helvetica,sans-Serif" font-size="32.00" fill="#29235c"> &#160;&#160;&#160;</text>
<text text-anchor="start" x="334.16" y="-1735.16" font-family="Helvetica,sans-Serif" font-style="italic" font-size="32.00" fill="#29235c">INTEGER</text>
<polygon fill="#e7e2dd" stroke="transparent" points="86.38,-1653.96 86.38,-1713.96 487.38,-1713.96 487.38,-1653.96 86.38,-1653.96"/>
<polygon fill="none" stroke="#29235c" points="86.38,-1653.96 86.38,-1713.96 487.38,-1713.96 487.38,-1653.96 86.38,-1653.96"/>
<text text-anchor="start" x="97.38" y="-1674.16" font-family="Helvetica,sans-Serif" font-size="32.00" fill="#29235c">ingredient_id &#160;&#160;&#160;</text>
<text text-anchor="start" x="334.16" y="-1675.16" font-family="Helvetica,sans-Serif" font-style="italic" font-size="32.00" fill="#29235c">INTEGER</text>
<polygon fill="#e7e2dd" stroke="transparent" points="86.38,-1593.96 86.38,-1653.96 487.38,-1653.96 487.38,-1593.96 86.38,-1593.96"/>
<polygon fill="none" stroke="#29235c" points="86.38,-1593.96 86.38,-1653.96 487.38,-1653.96 487.38,-1593.96 86.38,-1593.96"/>
<text text-anchor="start" x="97.38" y="-1614.16" font-family="Helvetica,sans-Serif" font-size="32.00" fill="#29235c">amount &#160;&#160;&#160;</text>
<text text-anchor="start" x="334.16" y="-1615.16" font-family="Helvetica,sans-Serif" font-style="italic" font-size="32.00" fill="#29235c">INTEGER</text>
<polygon fill="#e7e2dd" stroke="transparent" points="86.38,-1533.96 86.38,-1593.96 487.38,-1593.96 487.38,-1533.96 86.38,-1533.96"/>
<polygon fill="none" stroke="#29235c" points="86.38,-1533.96 86.38,-1593.96 487.38,-1593.96 487.38,-1533.96 86.38,-1533.96"/>
<text text-anchor="start" x="96.99" y="-1554.16" font-family="Helvetica,sans-Serif" font-size="32.00" fill="#29235c">last_updated &#160;&#160;&#160;</text>
<text text-anchor="start" x="315" y="-1555.16" font-family="Helvetica,sans-Serif" font-style="italic" font-size="32.00" fill="#29235c">DATETIME</text>
<polygon fill="none" stroke="#29235c" stroke-width="2" points="84.88,-1532.96 84.88,-1834.96 487.88,-1834.96 487.88,-1532.96 84.88,-1532.96"/>
</g>
<!-- Inventory&#45;&gt;Ingredient -->
<!-- Inventory&#45;&gt;Ingredient -->
<g id="edge4" class="edge">
<title>Inventory:e&#45;&gt;Ingredient:w</title>
<path fill="none" stroke="#29235c" stroke-width="3" d="M488.38,-1683.96C580.05,-1683.96 597.48,-1739.7 683.8,-1743.73"/>
<polygon fill="#29235c" stroke="#29235c" stroke-width="3" points="683.72,-1747.23 693.8,-1743.96 683.88,-1740.23 683.72,-1747.23"/>
<text text-anchor="middle" x="700.02" y="-1753.56" font-family="Helvetica,sans-Serif" font-size="32.00" fill="#29235c">*</text>
<text text-anchor="middle" x="479.48" y="-1693.56" font-family="Helvetica,sans-Serif" font-size="32.00" fill="#29235c">1</text>
</g>
<!-- Menu -->
<g id="Menu" class="node">
<title>Menu</title>
<ellipse fill="none" stroke="black" stroke-width="0" cx="1446.62" cy="-214.96" rx="275.54" ry="214.92"/>
<polygon fill="#1d71b8" stroke="transparent" points="1253.62,-304.96 1253.62,-364.96 1639.62,-364.96 1639.62,-304.96 1253.62,-304.96"/>
<polygon fill="none" stroke="#29235c" points="1253.62,-304.96 1253.62,-364.96 1639.62,-364.96 1639.62,-304.96 1253.62,-304.96"/>
<text text-anchor="start" x="1344.36" y="-326.16" font-family="Helvetica,sans-Serif" font-weight="bold" font-size="32.00" fill="#ffffff"> &#160;&#160;&#160;&#160;&#160;&#160;Menu &#160;&#160;&#160;&#160;&#160;&#160;</text>
<polygon fill="#e7e2dd" stroke="transparent" points="1253.62,-244.96 1253.62,-304.96 1639.62,-304.96 1639.62,-244.96 1253.62,-244.96"/>
<polygon fill="none" stroke="#29235c" points="1253.62,-244.96 1253.62,-304.96 1639.62,-304.96 1639.62,-244.96 1253.62,-244.96"/>
<text text-anchor="start" x="1264.62" y="-266.16" font-family="Helvetica,sans-Serif" font-weight="bold" font-size="32.00" fill="#29235c">id</text>
<text text-anchor="start" x="1289.51" y="-266.16" font-family="Helvetica,sans-Serif" font-size="32.00" fill="#29235c"> &#160;&#160;&#160;</text>
<text text-anchor="start" x="1486.4" y="-266.16" font-family="Helvetica,sans-Serif" font-style="italic" font-size="32.00" fill="#29235c">INTEGER</text>
<polygon fill="#e7e2dd" stroke="transparent" points="1253.62,-184.96 1253.62,-244.96 1639.62,-244.96 1639.62,-184.96 1253.62,-184.96"/>
<polygon fill="none" stroke="#29235c" points="1253.62,-184.96 1253.62,-244.96 1639.62,-244.96 1639.62,-184.96 1253.62,-184.96"/>
<text text-anchor="start" x="1264.47" y="-205.16" font-family="Helvetica,sans-Serif" font-size="32.00" fill="#29235c">restaurant_id &#160;&#160;&#160;</text>
<text text-anchor="start" x="1486.51" y="-206.16" font-family="Helvetica,sans-Serif" font-style="italic" font-size="32.00" fill="#29235c">INTEGER</text>
<polygon fill="#e7e2dd" stroke="transparent" points="1253.62,-124.96 1253.62,-184.96 1639.62,-184.96 1639.62,-124.96 1253.62,-124.96"/>
<polygon fill="none" stroke="#29235c" points="1253.62,-124.96 1253.62,-184.96 1639.62,-184.96 1639.62,-124.96 1253.62,-124.96"/>
<text text-anchor="start" x="1264.62" y="-145.16" font-family="Helvetica,sans-Serif" font-size="32.00" fill="#29235c">name &#160;&#160;&#160;</text>
<text text-anchor="start" x="1472.19" y="-146.16" font-family="Helvetica,sans-Serif" font-style="italic" font-size="32.00" fill="#29235c">VARCHAR</text>
<polygon fill="#e7e2dd" stroke="transparent" points="1253.62,-64.96 1253.62,-124.96 1639.62,-124.96 1639.62,-64.96 1253.62,-64.96"/>
<polygon fill="none" stroke="#29235c" points="1253.62,-64.96 1253.62,-124.96 1639.62,-124.96 1639.62,-64.96 1253.62,-64.96"/>
<text text-anchor="start" x="1264.62" y="-85.16" font-family="Helvetica,sans-Serif" font-size="32.00" fill="#29235c">description &#160;&#160;&#160;</text>
<text text-anchor="start" x="1472.19" y="-86.16" font-family="Helvetica,sans-Serif" font-style="italic" font-size="32.00" fill="#29235c">VARCHAR</text>
<polygon fill="none" stroke="#29235c" stroke-width="2" points="1252.62,-63.96 1252.62,-365.96 1640.62,-365.96 1640.62,-63.96 1252.62,-63.96"/>
</g>
<!-- Restaurant -->
<g id="Restaurant" class="node">
<title>Restaurant</title>
<ellipse fill="none" stroke="black" stroke-width="0" cx="1992.44" cy="-704.96" rx="234.1" ry="257.27"/>
<polygon fill="#1d71b8" stroke="transparent" points="1829.44,-824.96 1829.44,-884.96 2156.44,-884.96 2156.44,-824.96 1829.44,-824.96"/>
<polygon fill="none" stroke="#29235c" points="1829.44,-824.96 1829.44,-884.96 2156.44,-884.96 2156.44,-824.96 1829.44,-824.96"/>
<text text-anchor="start" x="1852.45" y="-846.16" font-family="Helvetica,sans-Serif" font-weight="bold" font-size="32.00" fill="#ffffff"> &#160;&#160;&#160;&#160;&#160;&#160;Restaurant &#160;&#160;&#160;&#160;&#160;&#160;</text>
<polygon fill="#e7e2dd" stroke="transparent" points="1829.44,-764.96 1829.44,-824.96 2156.44,-824.96 2156.44,-764.96 1829.44,-764.96"/>
<polygon fill="none" stroke="#29235c" points="1829.44,-764.96 1829.44,-824.96 2156.44,-824.96 2156.44,-764.96 1829.44,-764.96"/>
<text text-anchor="start" x="1840.44" y="-786.16" font-family="Helvetica,sans-Serif" font-weight="bold" font-size="32.00" fill="#29235c">id</text>
<text text-anchor="start" x="1865.33" y="-786.16" font-family="Helvetica,sans-Serif" font-size="32.00" fill="#29235c"> &#160;&#160;&#160;</text>
<text text-anchor="start" x="2003.22" y="-786.16" font-family="Helvetica,sans-Serif" font-style="italic" font-size="32.00" fill="#29235c">INTEGER</text>
<polygon fill="#e7e2dd" stroke="transparent" points="1829.44,-704.96 1829.44,-764.96 2156.44,-764.96 2156.44,-704.96 1829.44,-704.96"/>
<polygon fill="none" stroke="#29235c" points="1829.44,-704.96 1829.44,-764.96 2156.44,-764.96 2156.44,-704.96 1829.44,-704.96"/>
<text text-anchor="start" x="1840.44" y="-725.16" font-family="Helvetica,sans-Serif" font-size="32.00" fill="#29235c">name &#160;&#160;&#160;</text>
<text text-anchor="start" x="1989.01" y="-726.16" font-family="Helvetica,sans-Serif" font-style="italic" font-size="32.00" fill="#29235c">VARCHAR</text>
<polygon fill="#e7e2dd" stroke="transparent" points="1829.44,-644.96 1829.44,-704.96 2156.44,-704.96 2156.44,-644.96 1829.44,-644.96"/>
<polygon fill="none" stroke="#29235c" points="1829.44,-644.96 1829.44,-704.96 2156.44,-704.96 2156.44,-644.96 1829.44,-644.96"/>
<text text-anchor="start" x="1840.25" y="-665.16" font-family="Helvetica,sans-Serif" font-size="32.00" fill="#29235c">address &#160;&#160;&#160;</text>
<text text-anchor="start" x="1989.23" y="-666.16" font-family="Helvetica,sans-Serif" font-style="italic" font-size="32.00" fill="#29235c">VARCHAR</text>
<polygon fill="#e7e2dd" stroke="transparent" points="1829.44,-584.96 1829.44,-644.96 2156.44,-644.96 2156.44,-584.96 1829.44,-584.96"/>
<polygon fill="none" stroke="#29235c" points="1829.44,-584.96 1829.44,-644.96 2156.44,-644.96 2156.44,-584.96 1829.44,-584.96"/>
<text text-anchor="start" x="1840.44" y="-605.16" font-family="Helvetica,sans-Serif" font-size="32.00" fill="#29235c">phone &#160;&#160;&#160;</text>
<text text-anchor="start" x="1989.01" y="-606.16" font-family="Helvetica,sans-Serif" font-style="italic" font-size="32.00" fill="#29235c">VARCHAR</text>
<polygon fill="#e7e2dd" stroke="transparent" points="1829.44,-524.96 1829.44,-584.96 2156.44,-584.96 2156.44,-524.96 1829.44,-524.96"/>
<polygon fill="none" stroke="#29235c" points="1829.44,-524.96 1829.44,-584.96 2156.44,-584.96 2156.44,-524.96 1829.44,-524.96"/>
<text text-anchor="start" x="1840.44" y="-545.16" font-family="Helvetica,sans-Serif" font-size="32.00" fill="#29235c">email &#160;&#160;&#160;</text>
<text text-anchor="start" x="1989.01" y="-546.16" font-family="Helvetica,sans-Serif" font-style="italic" font-size="32.00" fill="#29235c">VARCHAR</text>
<polygon fill="none" stroke="#29235c" stroke-width="2" points="1827.94,-523.96 1827.94,-885.96 2156.94,-885.96 2156.94,-523.96 1827.94,-523.96"/>
</g>
<!-- Menu&#45;&gt;Restaurant -->
<!-- Menu&#45;&gt;Restaurant -->
<g id="edge6" class="edge">
<title>Menu:e&#45;&gt;Restaurant:w</title>
<path fill="none" stroke="#29235c" stroke-width="3" d="M1640.62,-214.96C1772.52,-214.96 1697.19,-764.78 1818.17,-793.77"/>
<polygon fill="#29235c" stroke="#29235c" stroke-width="3" points="1818.1,-797.29 1828.44,-794.96 1818.91,-790.33 1818.1,-797.29"/>
<text text-anchor="middle" x="1822.22" y="-766.16" font-family="Helvetica,sans-Serif" font-size="32.00" fill="#29235c">*</text>
<text text-anchor="middle" x="1649.51" y="-186.16" font-family="Helvetica,sans-Serif" font-size="32.00" fill="#29235c">1</text>
</g>
<!-- MenuItem -->
<g id="MenuItem" class="node">
<title>MenuItem</title>
<ellipse fill="none" stroke="black" stroke-width="0" cx="871.8" cy="-293.96" rx="263.09" ry="257.27"/>
<polygon fill="#1d71b8" stroke="transparent" points="687.8,-413.96 687.8,-473.96 1055.8,-473.96 1055.8,-413.96 687.8,-413.96"/>
<polygon fill="none" stroke="#29235c" points="687.8,-413.96 687.8,-473.96 1055.8,-473.96 1055.8,-413.96 687.8,-413.96"/>
<text text-anchor="start" x="738.43" y="-435.16" font-family="Helvetica,sans-Serif" font-weight="bold" font-size="32.00" fill="#ffffff"> &#160;&#160;&#160;&#160;&#160;&#160;MenuItem &#160;&#160;&#160;&#160;&#160;&#160;</text>
<polygon fill="#e7e2dd" stroke="transparent" points="687.8,-353.96 687.8,-413.96 1055.8,-413.96 1055.8,-353.96 687.8,-353.96"/>
<polygon fill="none" stroke="#29235c" points="687.8,-353.96 687.8,-413.96 1055.8,-413.96 1055.8,-353.96 687.8,-353.96"/>
<text text-anchor="start" x="698.8" y="-375.16" font-family="Helvetica,sans-Serif" font-weight="bold" font-size="32.00" fill="#29235c">id</text>
<text text-anchor="start" x="723.69" y="-375.16" font-family="Helvetica,sans-Serif" font-size="32.00" fill="#29235c"> &#160;&#160;&#160;</text>
<text text-anchor="start" x="902.58" y="-375.16" font-family="Helvetica,sans-Serif" font-style="italic" font-size="32.00" fill="#29235c">INTEGER</text>
<polygon fill="#e7e2dd" stroke="transparent" points="687.8,-293.96 687.8,-353.96 1055.8,-353.96 1055.8,-293.96 687.8,-293.96"/>
<polygon fill="none" stroke="#29235c" points="687.8,-293.96 687.8,-353.96 1055.8,-353.96 1055.8,-293.96 687.8,-293.96"/>
<text text-anchor="start" x="698.8" y="-314.16" font-family="Helvetica,sans-Serif" font-size="32.00" fill="#29235c">menu_id &#160;&#160;&#160;</text>
<text text-anchor="start" x="902.58" y="-315.16" font-family="Helvetica,sans-Serif" font-style="italic" font-size="32.00" fill="#29235c">INTEGER</text>
<polygon fill="#e7e2dd" stroke="transparent" points="687.8,-233.96 687.8,-293.96 1055.8,-293.96 1055.8,-233.96 687.8,-233.96"/>
<polygon fill="none" stroke="#29235c" points="687.8,-233.96 687.8,-293.96 1055.8,-293.96 1055.8,-233.96 687.8,-233.96"/>
<text text-anchor="start" x="698.8" y="-254.16" font-family="Helvetica,sans-Serif" font-size="32.00" fill="#29235c">name &#160;&#160;&#160;</text>
<text text-anchor="start" x="888.37" y="-255.16" font-family="Helvetica,sans-Serif" font-style="italic" font-size="32.00" fill="#29235c">VARCHAR</text>
<polygon fill="#e7e2dd" stroke="transparent" points="687.8,-173.96 687.8,-233.96 1055.8,-233.96 1055.8,-173.96 687.8,-173.96"/>
<polygon fill="none" stroke="#29235c" points="687.8,-173.96 687.8,-233.96 1055.8,-233.96 1055.8,-173.96 687.8,-173.96"/>
<text text-anchor="start" x="698.67" y="-194.16" font-family="Helvetica,sans-Serif" font-size="32.00" fill="#29235c">description &#160;&#160;&#160;</text>
<text text-anchor="start" x="888.59" y="-195.16" font-family="Helvetica,sans-Serif" font-style="italic" font-size="32.00" fill="#29235c">VARCHAR</text>
<polygon fill="#e7e2dd" stroke="transparent" points="687.8,-113.96 687.8,-173.96 1055.8,-173.96 1055.8,-113.96 687.8,-113.96"/>
<polygon fill="none" stroke="#29235c" points="687.8,-113.96 687.8,-173.96 1055.8,-173.96 1055.8,-113.96 687.8,-113.96"/>
<text text-anchor="start" x="698.8" y="-134.16" font-family="Helvetica,sans-Serif" font-size="32.00" fill="#29235c">price &#160;&#160;&#160;</text>
<text text-anchor="start" x="902.58" y="-135.16" font-family="Helvetica,sans-Serif" font-style="italic" font-size="32.00" fill="#29235c">INTEGER</text>
<polygon fill="none" stroke="#29235c" stroke-width="2" points="686.8,-112.96 686.8,-474.96 1056.8,-474.96 1056.8,-112.96 686.8,-112.96"/>
</g>
<!-- MenuItem&#45;&gt;Menu -->
<!-- MenuItem&#45;&gt;Menu -->
<g id="edge8" class="edge">
<title>MenuItem:e&#45;&gt;Menu:w</title>
<path fill="none" stroke="#29235c" stroke-width="3" d="M1056.8,-323.96C1143.01,-323.96 1161.51,-278.71 1242.43,-275.18"/>
<polygon fill="#29235c" stroke="#29235c" stroke-width="3" points="1242.69,-278.67 1252.62,-274.96 1242.54,-271.68 1242.69,-278.67"/>
<text text-anchor="middle" x="1258.84" y="-246.16" font-family="Helvetica,sans-Serif" font-size="32.00" fill="#29235c">*</text>
<text text-anchor="middle" x="1047.91" y="-295.16" font-family="Helvetica,sans-Serif" font-size="32.00" fill="#29235c">1</text>
</g>
<!-- Order -->
<g id="Order" class="node">
<title>Order</title>
<ellipse fill="none" stroke="black" stroke-width="0" cx="1446.62" cy="-1194.96" rx="275.54" ry="214.92"/>
<polygon fill="#1d71b8" stroke="transparent" points="1253.62,-1284.96 1253.62,-1344.96 1639.62,-1344.96 1639.62,-1284.96 1253.62,-1284.96"/>
<polygon fill="none" stroke="#29235c" points="1253.62,-1284.96 1253.62,-1344.96 1639.62,-1344.96 1639.62,-1284.96 1253.62,-1284.96"/>
<text text-anchor="start" x="1343.48" y="-1306.16" font-family="Helvetica,sans-Serif" font-weight="bold" font-size="32.00" fill="#ffffff"> &#160;&#160;&#160;&#160;&#160;&#160;Order &#160;&#160;&#160;&#160;&#160;&#160;</text>
<polygon fill="#e7e2dd" stroke="transparent" points="1253.62,-1224.96 1253.62,-1284.96 1639.62,-1284.96 1639.62,-1224.96 1253.62,-1224.96"/>
<polygon fill="none" stroke="#29235c" points="1253.62,-1224.96 1253.62,-1284.96 1639.62,-1284.96 1639.62,-1224.96 1253.62,-1224.96"/>
<text text-anchor="start" x="1264.62" y="-1246.16" font-family="Helvetica,sans-Serif" font-weight="bold" font-size="32.00" fill="#29235c">id</text>
<text text-anchor="start" x="1289.51" y="-1246.16" font-family="Helvetica,sans-Serif" font-size="32.00" fill="#29235c"> &#160;&#160;&#160;</text>
<text text-anchor="start" x="1486.4" y="-1246.16" font-family="Helvetica,sans-Serif" font-style="italic" font-size="32.00" fill="#29235c">INTEGER</text>
<polygon fill="#e7e2dd" stroke="transparent" points="1253.62,-1164.96 1253.62,-1224.96 1639.62,-1224.96 1639.62,-1164.96 1253.62,-1164.96"/>
<polygon fill="none" stroke="#29235c" points="1253.62,-1164.96 1253.62,-1224.96 1639.62,-1224.96 1639.62,-1164.96 1253.62,-1164.96"/>
<text text-anchor="start" x="1264.62" y="-1185.16" font-family="Helvetica,sans-Serif" font-size="32.00" fill="#29235c">customer_id &#160;&#160;&#160;</text>
<text text-anchor="start" x="1486.4" y="-1186.16" font-family="Helvetica,sans-Serif" font-style="italic" font-size="32.00" fill="#29235c">INTEGER</text>
<polygon fill="#e7e2dd" stroke="transparent" points="1253.62,-1104.96 1253.62,-1164.96 1639.62,-1164.96 1639.62,-1104.96 1253.62,-1104.96"/>
<polygon fill="none" stroke="#29235c" points="1253.62,-1104.96 1253.62,-1164.96 1639.62,-1164.96 1639.62,-1104.96 1253.62,-1104.96"/>
<text text-anchor="start" x="1264.47" y="-1125.16" font-family="Helvetica,sans-Serif" font-size="32.00" fill="#29235c">restaurant_id &#160;&#160;&#160;</text>
<text text-anchor="start" x="1486.51" y="-1126.16" font-family="Helvetica,sans-Serif" font-style="italic" font-size="32.00" fill="#29235c">INTEGER</text>
<polygon fill="#e7e2dd" stroke="transparent" points="1253.62,-1044.96 1253.62,-1104.96 1639.62,-1104.96 1639.62,-1044.96 1253.62,-1044.96"/>
<polygon fill="none" stroke="#29235c" points="1253.62,-1044.96 1253.62,-1104.96 1639.62,-1104.96 1639.62,-1044.96 1253.62,-1044.96"/>
<text text-anchor="start" x="1264.62" y="-1065.16" font-family="Helvetica,sans-Serif" font-size="32.00" fill="#29235c">date &#160;&#160;&#160;</text>
<text text-anchor="start" x="1466.85" y="-1066.16" font-family="Helvetica,sans-Serif" font-style="italic" font-size="32.00" fill="#29235c">DATETIME</text>
<polygon fill="none" stroke="#29235c" stroke-width="2" points="1252.62,-1043.96 1252.62,-1345.96 1640.62,-1345.96 1640.62,-1043.96 1252.62,-1043.96"/>
</g>
<!-- Order&#45;&gt;Customer -->
<!-- Order&#45;&gt;Customer -->
<g id="edge10" class="edge">
<title>Order:e&#45;&gt;Customer:w</title>
<path fill="none" stroke="#29235c" stroke-width="3" d="M1640.62,-1194.96C1729.9,-1194.96 1746.54,-1250.59 1830.43,-1254.72"/>
<polygon fill="#29235c" stroke="#29235c" stroke-width="3" points="1830.36,-1258.22 1840.44,-1254.96 1830.53,-1251.22 1830.36,-1258.22"/>
<text text-anchor="middle" x="1834.22" y="-1226.16" font-family="Helvetica,sans-Serif" font-size="32.00" fill="#29235c">*</text>
<text text-anchor="middle" x="1649.51" y="-1166.16" font-family="Helvetica,sans-Serif" font-size="32.00" fill="#29235c">1</text>
</g>
<!-- Order&#45;&gt;Restaurant -->
<!-- Order&#45;&gt;Restaurant -->
<g id="edge12" class="edge">
<title>Order:e&#45;&gt;Restaurant:w</title>
<path fill="none" stroke="#29235c" stroke-width="3" d="M1640.62,-1134.96C1809.71,-1134.96 1662.12,-808.76 1818.23,-795.38"/>
<polygon fill="#29235c" stroke="#29235c" stroke-width="3" points="1818.59,-798.87 1828.44,-794.96 1818.3,-791.88 1818.59,-798.87"/>
<text text-anchor="middle" x="1822.22" y="-804.56" font-family="Helvetica,sans-Serif" font-size="32.00" fill="#29235c">*</text>
<text text-anchor="middle" x="1649.51" y="-1106.16" font-family="Helvetica,sans-Serif" font-size="32.00" fill="#29235c">1</text>
</g>
<!-- OrderItem -->
<g id="OrderItem" class="node">
<title>OrderItem</title>
<ellipse fill="none" stroke="black" stroke-width="0" cx="286.38" cy="-493.96" rx="285.84" ry="214.92"/>
<polygon fill="#1d71b8" stroke="transparent" points="86.38,-583.96 86.38,-643.96 486.38,-643.96 486.38,-583.96 86.38,-583.96"/>
<polygon fill="none" stroke="#29235c" points="86.38,-583.96 86.38,-643.96 486.38,-643.96 486.38,-583.96 86.38,-583.96"/>
<text text-anchor="start" x="152.13" y="-605.16" font-family="Helvetica,sans-Serif" font-weight="bold" font-size="32.00" fill="#ffffff"> &#160;&#160;&#160;&#160;&#160;&#160;OrderItem &#160;&#160;&#160;&#160;&#160;&#160;</text>
<polygon fill="#e7e2dd" stroke="transparent" points="86.38,-523.96 86.38,-583.96 486.38,-583.96 486.38,-523.96 86.38,-523.96"/>
<polygon fill="none" stroke="#29235c" points="86.38,-523.96 86.38,-583.96 486.38,-583.96 486.38,-523.96 86.38,-523.96"/>
<text text-anchor="start" x="97.38" y="-545.16" font-family="Helvetica,sans-Serif" font-weight="bold" font-size="32.00" fill="#29235c">id</text>
<text text-anchor="start" x="122.27" y="-545.16" font-family="Helvetica,sans-Serif" font-size="32.00" fill="#29235c"> &#160;&#160;&#160;</text>
<text text-anchor="start" x="333.16" y="-545.16" font-family="Helvetica,sans-Serif" font-style="italic" font-size="32.00" fill="#29235c">INTEGER</text>
<polygon fill="#e7e2dd" stroke="transparent" points="86.38,-463.96 86.38,-523.96 486.38,-523.96 486.38,-463.96 86.38,-463.96"/>
<polygon fill="none" stroke="#29235c" points="86.38,-463.96 86.38,-523.96 486.38,-523.96 486.38,-463.96 86.38,-463.96"/>
<text text-anchor="start" x="97.38" y="-484.16" font-family="Helvetica,sans-Serif" font-size="32.00" fill="#29235c">order_id &#160;&#160;&#160;</text>
<text text-anchor="start" x="333.16" y="-485.16" font-family="Helvetica,sans-Serif" font-style="italic" font-size="32.00" fill="#29235c">INTEGER</text>
<polygon fill="#e7e2dd" stroke="transparent" points="86.38,-403.96 86.38,-463.96 486.38,-463.96 486.38,-403.96 86.38,-403.96"/>
<polygon fill="none" stroke="#29235c" points="86.38,-403.96 86.38,-463.96 486.38,-463.96 486.38,-403.96 86.38,-403.96"/>
<text text-anchor="start" x="97.13" y="-424.16" font-family="Helvetica,sans-Serif" font-size="32.00" fill="#29235c">menu_item_id &#160;&#160;&#160;</text>
<text text-anchor="start" x="333.27" y="-425.16" font-family="Helvetica,sans-Serif" font-style="italic" font-size="32.00" fill="#29235c">INTEGER</text>
<polygon fill="#e7e2dd" stroke="transparent" points="86.38,-343.96 86.38,-403.96 486.38,-403.96 486.38,-343.96 86.38,-343.96"/>
<polygon fill="none" stroke="#29235c" points="86.38,-343.96 86.38,-403.96 486.38,-403.96 486.38,-343.96 86.38,-343.96"/>
<text text-anchor="start" x="97.38" y="-364.16" font-family="Helvetica,sans-Serif" font-size="32.00" fill="#29235c">quantity &#160;&#160;&#160;</text>
<text text-anchor="start" x="333.16" y="-365.16" font-family="Helvetica,sans-Serif" font-style="italic" font-size="32.00" fill="#29235c">INTEGER</text>
<polygon fill="none" stroke="#29235c" stroke-width="2" points="85.38,-342.96 85.38,-644.96 487.38,-644.96 487.38,-342.96 85.38,-342.96"/>
</g>
<!-- OrderItem&#45;&gt;MenuItem -->
<!-- OrderItem&#45;&gt;MenuItem -->
<g id="edge14" class="edge">
<title>OrderItem:e&#45;&gt;MenuItem:w</title>
<path fill="none" stroke="#29235c" stroke-width="3" d="M487.38,-433.96C575.27,-433.96 594.05,-387.7 676.68,-384.17"/>
<polygon fill="#29235c" stroke="#29235c" stroke-width="3" points="676.88,-387.67 686.8,-383.96 676.73,-380.67 676.88,-387.67"/>
<text text-anchor="middle" x="693.02" y="-355.16" font-family="Helvetica,sans-Serif" font-size="32.00" fill="#29235c">*</text>
<text text-anchor="middle" x="478.48" y="-405.16" font-family="Helvetica,sans-Serif" font-size="32.00" fill="#29235c">1</text>
</g>
<!-- OrderItem&#45;&gt;Order -->
<!-- OrderItem&#45;&gt;Order -->
<g id="edge16" class="edge">
<title>OrderItem:e&#45;&gt;Order:w</title>
<path fill="none" stroke="#29235c" stroke-width="3" d="M487.38,-493.96C488.02,-493.96 1134.44,-847.46 1134.84,-847.96 1191.57,-918.68 1160.95,-1230.56 1242.66,-1253.61"/>
<polygon fill="#29235c" stroke="#29235c" stroke-width="3" points="1242.24,-1257.09 1252.62,-1254.96 1243.18,-1250.15 1242.24,-1257.09"/>
<text text-anchor="middle" x="1258.84" y="-1226.16" font-family="Helvetica,sans-Serif" font-size="32.00" fill="#29235c">*</text>
<text text-anchor="middle" x="478.48" y="-465.16" font-family="Helvetica,sans-Serif" font-size="32.00" fill="#29235c">1</text>
</g>
<!-- Payment -->
<g id="Payment" class="node">
<title>Payment</title>
<ellipse fill="none" stroke="black" stroke-width="0" cx="871.8" cy="-1071.96" rx="226.05" ry="214.92"/>
<polygon fill="#1d71b8" stroke="transparent" points="713.8,-1161.96 713.8,-1221.96 1029.8,-1221.96 1029.8,-1161.96 713.8,-1161.96"/>
<polygon fill="none" stroke="#29235c" points="713.8,-1161.96 713.8,-1221.96 1029.8,-1221.96 1029.8,-1161.96 713.8,-1161.96"/>
<text text-anchor="start" x="746.42" y="-1183.16" font-family="Helvetica,sans-Serif" font-weight="bold" font-size="32.00" fill="#ffffff"> &#160;&#160;&#160;&#160;&#160;&#160;Payment &#160;&#160;&#160;&#160;&#160;&#160;</text>
<polygon fill="#e7e2dd" stroke="transparent" points="713.8,-1101.96 713.8,-1161.96 1029.8,-1161.96 1029.8,-1101.96 713.8,-1101.96"/>
<polygon fill="none" stroke="#29235c" points="713.8,-1101.96 713.8,-1161.96 1029.8,-1161.96 1029.8,-1101.96 713.8,-1101.96"/>
<text text-anchor="start" x="724.8" y="-1123.16" font-family="Helvetica,sans-Serif" font-weight="bold" font-size="32.00" fill="#29235c">id</text>
<text text-anchor="start" x="749.69" y="-1123.16" font-family="Helvetica,sans-Serif" font-size="32.00" fill="#29235c"> &#160;&#160;&#160;</text>
<text text-anchor="start" x="876.58" y="-1123.16" font-family="Helvetica,sans-Serif" font-style="italic" font-size="32.00" fill="#29235c">INTEGER</text>
<polygon fill="#e7e2dd" stroke="transparent" points="713.8,-1041.96 713.8,-1101.96 1029.8,-1101.96 1029.8,-1041.96 713.8,-1041.96"/>
<polygon fill="none" stroke="#29235c" points="713.8,-1041.96 713.8,-1101.96 1029.8,-1101.96 1029.8,-1041.96 713.8,-1041.96"/>
<text text-anchor="start" x="724.34" y="-1062.16" font-family="Helvetica,sans-Serif" font-size="32.00" fill="#29235c">order_id &#160;&#160;&#160;</text>
<text text-anchor="start" x="876.69" y="-1063.16" font-family="Helvetica,sans-Serif" font-style="italic" font-size="32.00" fill="#29235c">INTEGER</text>
<polygon fill="#e7e2dd" stroke="transparent" points="713.8,-981.96 713.8,-1041.96 1029.8,-1041.96 1029.8,-981.96 713.8,-981.96"/>
<polygon fill="none" stroke="#29235c" points="713.8,-981.96 713.8,-1041.96 1029.8,-1041.96 1029.8,-981.96 713.8,-981.96"/>
<text text-anchor="start" x="724.8" y="-1002.16" font-family="Helvetica,sans-Serif" font-size="32.00" fill="#29235c">amount &#160;&#160;&#160;</text>
<text text-anchor="start" x="876.58" y="-1003.16" font-family="Helvetica,sans-Serif" font-style="italic" font-size="32.00" fill="#29235c">INTEGER</text>
<polygon fill="#e7e2dd" stroke="transparent" points="713.8,-921.96 713.8,-981.96 1029.8,-981.96 1029.8,-921.96 713.8,-921.96"/>
<polygon fill="none" stroke="#29235c" points="713.8,-921.96 713.8,-981.96 1029.8,-981.96 1029.8,-921.96 713.8,-921.96"/>
<text text-anchor="start" x="724.8" y="-942.16" font-family="Helvetica,sans-Serif" font-size="32.00" fill="#29235c">date &#160;&#160;&#160;</text>
<text text-anchor="start" x="857.03" y="-943.16" font-family="Helvetica,sans-Serif" font-style="italic" font-size="32.00" fill="#29235c">DATETIME</text>
<polygon fill="none" stroke="#29235c" stroke-width="2" points="712.8,-920.96 712.8,-1222.96 1030.8,-1222.96 1030.8,-920.96 712.8,-920.96"/>
</g>
<!-- Payment&#45;&gt;Order -->
<!-- Payment&#45;&gt;Order -->
<g id="edge18" class="edge">
<title>Payment:e&#45;&gt;Order:w</title>
<path fill="none" stroke="#29235c" stroke-width="3" d="M1030.8,-1071.96C1155.11,-1071.96 1126.54,-1245.09 1242.49,-1254.56"/>
<polygon fill="#29235c" stroke="#29235c" stroke-width="3" points="1242.48,-1258.06 1252.62,-1254.96 1242.76,-1251.07 1242.48,-1258.06"/>
<text text-anchor="middle" x="1258.84" y="-1264.56" font-family="Helvetica,sans-Serif" font-size="32.00" fill="#29235c">*</text>
<text text-anchor="middle" x="1021.91" y="-1043.16" font-family="Helvetica,sans-Serif" font-size="32.00" fill="#29235c">1</text>
</g>
<!-- Reservation -->
<g id="Reservation" class="node">
<title>Reservation</title>
<ellipse fill="none" stroke="black" stroke-width="0" cx="1446.62" cy="-704.96" rx="275.54" ry="257.27"/>
<polygon fill="#1d71b8" stroke="transparent" points="1253.62,-824.96 1253.62,-884.96 1639.62,-884.96 1639.62,-824.96 1253.62,-824.96"/>
<polygon fill="none" stroke="#29235c" points="1253.62,-824.96 1253.62,-884.96 1639.62,-884.96 1639.62,-824.96 1253.62,-824.96"/>
<text text-anchor="start" x="1299.02" y="-846.16" font-family="Helvetica,sans-Serif" font-weight="bold" font-size="32.00" fill="#ffffff"> &#160;&#160;&#160;&#160;&#160;&#160;Reservation &#160;&#160;&#160;&#160;&#160;&#160;</text>
<polygon fill="#e7e2dd" stroke="transparent" points="1253.62,-764.96 1253.62,-824.96 1639.62,-824.96 1639.62,-764.96 1253.62,-764.96"/>
<polygon fill="none" stroke="#29235c" points="1253.62,-764.96 1253.62,-824.96 1639.62,-824.96 1639.62,-764.96 1253.62,-764.96"/>
<text text-anchor="start" x="1264.62" y="-786.16" font-family="Helvetica,sans-Serif" font-weight="bold" font-size="32.00" fill="#29235c">id</text>
<text text-anchor="start" x="1289.51" y="-786.16" font-family="Helvetica,sans-Serif" font-size="32.00" fill="#29235c"> &#160;&#160;&#160;</text>
<text text-anchor="start" x="1486.4" y="-786.16" font-family="Helvetica,sans-Serif" font-style="italic" font-size="32.00" fill="#29235c">INTEGER</text>
<polygon fill="#e7e2dd" stroke="transparent" points="1253.62,-704.96 1253.62,-764.96 1639.62,-764.96 1639.62,-704.96 1253.62,-704.96"/>
<polygon fill="none" stroke="#29235c" points="1253.62,-704.96 1253.62,-764.96 1639.62,-764.96 1639.62,-704.96 1253.62,-704.96"/>
<text text-anchor="start" x="1264.62" y="-725.16" font-family="Helvetica,sans-Serif" font-size="32.00" fill="#29235c">customer_id &#160;&#160;&#160;</text>
<text text-anchor="start" x="1486.4" y="-726.16" font-family="Helvetica,sans-Serif" font-style="italic" font-size="32.00" fill="#29235c">INTEGER</text>
<polygon fill="#e7e2dd" stroke="transparent" points="1253.62,-644.96 1253.62,-704.96 1639.62,-704.96 1639.62,-644.96 1253.62,-644.96"/>
<polygon fill="none" stroke="#29235c" points="1253.62,-644.96 1253.62,-704.96 1639.62,-704.96 1639.62,-644.96 1253.62,-644.96"/>
<text text-anchor="start" x="1264.47" y="-665.16" font-family="Helvetica,sans-Serif" font-size="32.00" fill="#29235c">restaurant_id &#160;&#160;&#160;</text>
<text text-anchor="start" x="1486.51" y="-666.16" font-family="Helvetica,sans-Serif" font-style="italic" font-size="32.00" fill="#29235c">INTEGER</text>
<polygon fill="#e7e2dd" stroke="transparent" points="1253.62,-584.96 1253.62,-644.96 1639.62,-644.96 1639.62,-584.96 1253.62,-584.96"/>
<polygon fill="none" stroke="#29235c" points="1253.62,-584.96 1253.62,-644.96 1639.62,-644.96 1639.62,-584.96 1253.62,-584.96"/>
<text text-anchor="start" x="1264.62" y="-605.16" font-family="Helvetica,sans-Serif" font-size="32.00" fill="#29235c">datetime &#160;&#160;&#160;</text>
<text text-anchor="start" x="1466.85" y="-606.16" font-family="Helvetica,sans-Serif" font-style="italic" font-size="32.00" fill="#29235c">DATETIME</text>
<polygon fill="#e7e2dd" stroke="transparent" points="1253.62,-524.96 1253.62,-584.96 1639.62,-584.96 1639.62,-524.96 1253.62,-524.96"/>
<polygon fill="none" stroke="#29235c" points="1253.62,-524.96 1253.62,-584.96 1639.62,-584.96 1639.62,-524.96 1253.62,-524.96"/>
<text text-anchor="start" x="1264.62" y="-545.16" font-family="Helvetica,sans-Serif" font-size="32.00" fill="#29235c">num_people &#160;&#160;&#160;</text>
<text text-anchor="start" x="1486.4" y="-546.16" font-family="Helvetica,sans-Serif" font-style="italic" font-size="32.00" fill="#29235c">INTEGER</text>
<polygon fill="none" stroke="#29235c" stroke-width="2" points="1252.62,-523.96 1252.62,-885.96 1640.62,-885.96 1640.62,-523.96 1252.62,-523.96"/>
</g>
<!-- Reservation&#45;&gt;Customer -->
<!-- Reservation&#45;&gt;Customer -->
<g id="edge20" class="edge">
<title>Reservation:e&#45;&gt;Customer:w</title>
<path fill="none" stroke="#29235c" stroke-width="3" d="M1640.62,-734.96C1884.7,-734.96 1601.11,-1240.34 1830.25,-1254.65"/>
<polygon fill="#29235c" stroke="#29235c" stroke-width="3" points="1830.34,-1258.15 1840.44,-1254.96 1830.55,-1251.16 1830.34,-1258.15"/>
<text text-anchor="middle" x="1834.22" y="-1264.56" font-family="Helvetica,sans-Serif" font-size="32.00" fill="#29235c">*</text>
<text text-anchor="middle" x="1649.51" y="-706.16" font-family="Helvetica,sans-Serif" font-size="32.00" fill="#29235c">1</text>
</g>
<!-- Reservation&#45;&gt;Restaurant -->
<!-- Reservation&#45;&gt;Restaurant -->
<g id="edge22" class="edge">
<title>Reservation:e&#45;&gt;Restaurant:w</title>
<path fill="none" stroke="#29235c" stroke-width="3" d="M1640.62,-674.96C1736.19,-674.96 1729.97,-786.67 1818.39,-794.53"/>
<polygon fill="#29235c" stroke="#29235c" stroke-width="3" points="1818.3,-798.03 1828.44,-794.96 1818.6,-791.03 1818.3,-798.03"/>
<text text-anchor="middle" x="1834.66" y="-766.16" font-family="Helvetica,sans-Serif" font-size="32.00" fill="#29235c">*</text>
<text text-anchor="middle" x="1649.51" y="-646.16" font-family="Helvetica,sans-Serif" font-size="32.00" fill="#29235c">1</text>
</g>
</g>
</svg>
